<svg id="Layer_1" data-name="Layer 1" xmlns="http://www.w3.org/2000/svg" viewBox="0 0 428.87 125.32"><defs><style>.cls-1{fill:#f32735;}.cls-2,.cls-6{fill:#fff;}.cls-3,.cls-4{fill:#414042;}.cls-3,.cls-5,.cls-6{fill-rule:evenodd;}.cls-5{fill:#00aeef;}</style></defs><path class="cls-1" d="M24.67,31.77a6.85,6.85,0,0,1,6.85-6.85H93a6.85,6.85,0,0,1,6.85,6.85v61.5A6.85,6.85,0,0,1,93,100.12H31.52a6.85,6.85,0,0,1-6.85-6.85V31.77Z"/><path class="cls-2" d="M84.12,63.21a26.69,26.69,0,0,1-53.35,0h1.32a20.57,20.57,0,0,0,41.13,0Zm12.39,0a34.25,34.25,0,0,1-68.48,0h1.4a28.06,28.06,0,0,0,56.1,0Zm-24.68,0a19.2,19.2,0,0,1-38.39,0h1.42c0,.16,0,.32,0,.48a13.72,13.72,0,0,0,27.44,0c0-.16,0-.32,0-.48ZM52.71,61.83a19.2,19.2,0,0,1,38.39,0H89.68c0-.16,0-.32,0-.48a13.72,13.72,0,1,0-27.44,0c0,.16,0,.32,0,.48ZM28,61.83a34.25,34.25,0,0,1,68.48,0h-1.4a28.06,28.06,0,0,0-56.1,0Zm12.39,0a26.69,26.69,0,0,1,53.35,0H92.45a20.57,20.57,0,0,0-41.13,0Z"/><path class="cls-3" d="M111.15,43.82h7.39v4.4a11,11,0,0,1,9.34-5,11.42,11.42,0,0,1,8.86,4.09q3.63,4.11,3.64,11.42,0,7.52-3.67,11.69a11.43,11.43,0,0,1-8.9,4.17,10.11,10.11,0,0,1-4.5-1,15.2,15.2,0,0,1-4.25-3.39v15h-7.91ZM119,58.35c0,3.38.66,5.87,2,7.49a6.13,6.13,0,0,0,4.87,2.42A5.71,5.71,0,0,0,130.4,66q1.83-2.24,1.83-7.3,0-4.73-1.88-7a5.83,5.83,0,0,0-4.68-2.29,6.06,6.06,0,0,0-4.81,2.25C119.58,53.18,119,55.4,119,58.35Z"/><path class="cls-3" d="M143.81,39.78V32.44h7.91v7.34Zm0,34v-30h7.91v30Z"/><path class="cls-3" d="M184.2,73.8h-7.91V58.53a23,23,0,0,0-.52-6.28A4.43,4.43,0,0,0,174.11,50a4.84,4.84,0,0,0-2.78-.79,6.46,6.46,0,0,0-3.72,1.13,5.71,5.71,0,0,0-2.27,3,26,26,0,0,0-.61,6.88V73.8h-7.91v-30h7.33v4.4a12.46,12.46,0,0,1,14.75-4.09,8.1,8.1,0,0,1,3.3,2.41,8.65,8.65,0,0,1,1.56,3.33,24.82,24.82,0,0,1,.44,5.33Z"/><path class="cls-3" d="M216.86,73.8h-7.34V69.4a12.11,12.11,0,0,1-4.34,3.86,10.94,10.94,0,0,1-5.05,1.3,11.45,11.45,0,0,1-8.87-4.17q-3.69-4.17-3.69-11.63,0-7.63,3.59-11.6a11.7,11.7,0,0,1,9.08-4,11.25,11.25,0,0,1,8.7,4.17V32.44h7.92ZM195.71,58.23c0,3.21.45,5.54,1.33,7a6,6,0,0,0,5.35,3.12A5.8,5.8,0,0,0,207,66q1.91-2.34,1.91-7,0-5.19-1.85-7.47a5.88,5.88,0,0,0-4.76-2.28,5.94,5.94,0,0,0-4.72,2.25C196.35,53,195.71,55.25,195.71,58.23Z"/><path class="cls-3" d="M219.94,58.45a16.35,16.35,0,0,1,1.94-7.66,13.38,13.38,0,0,1,5.52-5.65,16.29,16.29,0,0,1,8-2,14.92,14.92,0,0,1,11.14,4.42,15.27,15.27,0,0,1,4.34,11.18,15.5,15.5,0,0,1-4.38,11.29,14.82,14.82,0,0,1-11,4.48,17.41,17.41,0,0,1-7.85-1.87,12.81,12.81,0,0,1-5.69-5.47A18.33,18.33,0,0,1,219.94,58.45Zm8.14.42q0,4.47,2.12,6.84a6.87,6.87,0,0,0,10.4,0q2.1-2.37,2.1-6.9c0-2.93-.7-5.2-2.1-6.78a6.89,6.89,0,0,0-10.4,0Q228.08,54.4,228.08,58.87Z"/><path class="cls-3" d="M250.46,96.7l3.18-.49a2.32,2.32,0,0,0,.82,1.41,2.77,2.77,0,0,0,1.74.48,3.13,3.13,0,0,0,1.85-.45,1,1,0,0,0,.42-.85.85.85,0,0,0-.23-.6,2.56,2.56,0,0,0-1.06-.42,17.12,17.12,0,0,1-4.86-1.54,3.09,3.09,0,0,1-1.42-2.7,3.3,3.3,0,0,1,1.23-2.62,5.78,5.78,0,0,1,3.81-1.06,6.71,6.71,0,0,1,3.66.8A4.15,4.15,0,0,1,261.24,91l-3,.56a1.86,1.86,0,0,0-.73-1.08,2.68,2.68,0,0,0-1.52-.37,3.49,3.49,0,0,0-1.8.35.76.76,0,0,0-.36.64.71.71,0,0,0,.32.58,11.66,11.66,0,0,0,3,.89A9,9,0,0,1,260.66,94a2.94,2.94,0,0,1,1,2.36,3.61,3.61,0,0,1-1.38,2.83,6.07,6.07,0,0,1-4.07,1.19,6.71,6.71,0,0,1-3.88-1A4.6,4.6,0,0,1,250.46,96.7Zm.07-8.57v2.53h-2.17v4.83a12.7,12.7,0,0,0,.06,1.72.72.72,0,0,0,.28.39.89.89,0,0,0,.54.16,4,4,0,0,0,1.28-.31l.27,2.46a6.24,6.24,0,0,1-2.51.48,4.18,4.18,0,0,1-1.54-.28,2.43,2.43,0,0,1-1-.75,3,3,0,0,1-.44-1.24,15.06,15.06,0,0,1-.1-2.23V90.66h-1.46V88.13h1.46V85.75l3.18-1.85v4.23Zm-6.75,3.55-3.12.56a2.33,2.33,0,0,0-.72-1.41,2.13,2.13,0,0,0-1.45-.47,2.36,2.36,0,0,0-1.89.82,4.16,4.16,0,0,0-.7,2.73,4.82,4.82,0,0,0,.71,3,2.35,2.35,0,0,0,1.93.88,2.21,2.21,0,0,0,1.48-.5,3.18,3.18,0,0,0,.81-1.77l3.11.53a5.5,5.5,0,0,1-1.86,3.23,5.77,5.77,0,0,1-3.69,1.1,5.51,5.51,0,0,1-4.2-1.66,7.6,7.6,0,0,1,0-9.21,5.59,5.59,0,0,1,4.25-1.66,5.74,5.74,0,0,1,3.47,1A5.14,5.14,0,0,1,243.78,91.68Zm-15.52,8.44v-1.8a4.6,4.6,0,0,1-1.72,1.52,4.92,4.92,0,0,1-2.25.55,4.47,4.47,0,0,1-2.17-.53,3.11,3.11,0,0,1-1.38-1.49,6.56,6.56,0,0,1-.43-2.65V88.13h3.17v5.51a15.16,15.16,0,0,0,.17,3.1,1.75,1.75,0,0,0,.64.91,2,2,0,0,0,1.17.32,2.47,2.47,0,0,0,1.46-.44,2.32,2.32,0,0,0,.88-1.1,12.83,12.83,0,0,0,.24-3.24V88.13h3.17v12Zm-18.32-6.25a5.49,5.49,0,0,0,.53,2.77,2.4,2.4,0,0,0,2.15,1.24,2.32,2.32,0,0,0,1.86-.92,4.42,4.42,0,0,0,.77-2.79,4.65,4.65,0,0,0-.75-3,2.35,2.35,0,0,0-1.91-.91,2.39,2.39,0,0,0-1.89.9A4,4,0,0,0,209.94,93.87Zm8.47,6.25h-2.95V98.36a4.85,4.85,0,0,1-1.74,1.53,4.46,4.46,0,0,1-2,.5,4.59,4.59,0,0,1-3.54-1.66,6.79,6.79,0,0,1-1.47-4.65,6.67,6.67,0,0,1,1.44-4.63,4.65,4.65,0,0,1,3.62-1.59,4.47,4.47,0,0,1,3.47,1.67v-6h3.18Zm-21.44-6a4,4,0,0,0,.85,2.73,2.77,2.77,0,0,0,4.16,0,4.05,4.05,0,0,0,.85-2.76,4,4,0,0,0-.85-2.71,2.77,2.77,0,0,0-4.16,0A4,4,0,0,0,197,94.13ZM193.72,94a6.45,6.45,0,0,1,.78-3.06,5.33,5.33,0,0,1,2.2-2.26,6.55,6.55,0,0,1,3.19-.78,6,6,0,0,1,4.46,1.77,6.09,6.09,0,0,1,1.74,4.46,6.22,6.22,0,0,1-1.76,4.52,6,6,0,0,1-4.41,1.78,7,7,0,0,1-3.15-.75,5.07,5.07,0,0,1-2.27-2.17A7.34,7.34,0,0,1,193.72,94Zm-4.07,6.16h-3.17v-12h3v1.71a5,5,0,0,1,1.35-1.59,2.5,2.5,0,0,1,1.38-.39,4,4,0,0,1,2.08.6l-1,2.77a2.74,2.74,0,0,0-1.49-.52,1.75,1.75,0,0,0-1.13.37,2.54,2.54,0,0,0-.73,1.32,19.47,19.47,0,0,0-.26,4Zm-13-6.2a4.65,4.65,0,0,0,.8,3,2.47,2.47,0,0,0,2,1,2.27,2.27,0,0,0,1.83-.88,4.56,4.56,0,0,0,.74-2.91,4.29,4.29,0,0,0-.76-2.8,2.33,2.33,0,0,0-1.87-.91,2.42,2.42,0,0,0-1.93.9A4,4,0,0,0,176.7,93.92Zm-3.13-5.79h3v1.76a4.38,4.38,0,0,1,1.56-1.46,4.25,4.25,0,0,1,2.18-.57,4.57,4.57,0,0,1,3.54,1.64,6.63,6.63,0,0,1,1.46,4.56,6.83,6.83,0,0,1-1.47,4.67,4.57,4.57,0,0,1-3.56,1.66,4,4,0,0,1-1.8-.4,5.87,5.87,0,0,1-1.69-1.35v6h-3.17Zm-10,12h-3.17v-12h2.94v1.71a5.09,5.09,0,0,1,1.36-1.59,2.47,2.47,0,0,1,1.37-.39,4,4,0,0,1,2.09.6l-1,2.77a2.77,2.77,0,0,0-1.49-.52,1.75,1.75,0,0,0-1.13.37,2.48,2.48,0,0,0-.73,1.32,18.76,18.76,0,0,0-.26,4Zm-7.61-7a3.09,3.09,0,0,0-.71-2.09,2.3,2.3,0,0,0-3.37,0,2.94,2.94,0,0,0-.66,2.06Zm-.18,3.2,3.15.53A5.17,5.17,0,0,1,157,99.49a5.69,5.69,0,0,1-3.29.9,5.36,5.36,0,0,1-4.62-2,6.87,6.87,0,0,1-1.19-4.13,6.58,6.58,0,0,1,1.56-4.66,5.12,5.12,0,0,1,3.94-1.7,5.32,5.32,0,0,1,4.22,1.77q1.54,1.77,1.47,5.41h-7.94a3.22,3.22,0,0,0,.77,2.2,2.41,2.41,0,0,0,1.83.78,2,2,0,0,0,1.25-.41A2.51,2.51,0,0,0,155.8,96.3Zm-16.86-2.38a4.65,4.65,0,0,0,.8,3,2.47,2.47,0,0,0,1.95,1,2.27,2.27,0,0,0,1.84-.88,4.56,4.56,0,0,0,.74-2.91,4.29,4.29,0,0,0-.76-2.8,2.33,2.33,0,0,0-1.87-.91,2.42,2.42,0,0,0-1.93.9A4,4,0,0,0,138.94,93.92Zm-3.14-5.79h3v1.76a4.3,4.3,0,0,1,1.56-1.46,4.25,4.25,0,0,1,2.18-.57A4.57,4.57,0,0,1,146,89.5a6.62,6.62,0,0,1,1.45,4.56A6.82,6.82,0,0,1,146,98.73a4.57,4.57,0,0,1-3.56,1.66,4,4,0,0,1-1.8-.4A5.87,5.87,0,0,1,139,98.64v6H135.8Zm-5,6.23a19.07,19.07,0,0,1-1.93.49,6.05,6.05,0,0,0-1.73.55,1.33,1.33,0,0,0-.62,1.12,1.56,1.56,0,0,0,.5,1.15,1.74,1.74,0,0,0,1.26.48,2.71,2.71,0,0,0,1.64-.56,2,2,0,0,0,.76-1,6.51,6.51,0,0,0,.12-1.55Zm-4.24-2.57-2.88-.52a4.43,4.43,0,0,1,1.67-2.57,6.07,6.07,0,0,1,3.52-.84,7.49,7.49,0,0,1,3.16.51,3.1,3.1,0,0,1,1.46,1.28,6.51,6.51,0,0,1,.42,2.83l0,3.7a13.27,13.27,0,0,0,.15,2.34,6.74,6.74,0,0,0,.57,1.6h-3.13a8.55,8.55,0,0,1-.31-.94l-.11-.37a5.54,5.54,0,0,1-1.74,1.18,4.85,4.85,0,0,1-2,.4,4.12,4.12,0,0,1-2.93-1,3.56,3.56,0,0,1-.57-4.34,3.13,3.13,0,0,1,1.35-1.22,10.85,10.85,0,0,1,2.53-.74,17.46,17.46,0,0,0,3.08-.78V92a1.64,1.64,0,0,0-.45-1.3,2.7,2.7,0,0,0-1.7-.39,1.91,1.91,0,0,0-2.09,1.5Zm-12.29,2.13a4.58,4.58,0,0,0,.81,3,2.44,2.44,0,0,0,2,1,2.3,2.3,0,0,0,1.84-.88,4.57,4.57,0,0,0,.73-2.91,4.29,4.29,0,0,0-.76-2.8,2.31,2.31,0,0,0-1.87-.91,2.44,2.44,0,0,0-1.93.9A4,4,0,0,0,114.28,93.92Zm-3.13-5.79h2.95v1.76a4.47,4.47,0,0,1,1.56-1.46,4.27,4.27,0,0,1,2.18-.57,4.57,4.57,0,0,1,3.54,1.64,6.63,6.63,0,0,1,1.46,4.56,6.83,6.83,0,0,1-1.47,4.67,4.56,4.56,0,0,1-3.55,1.66A4,4,0,0,1,116,100a6,6,0,0,1-1.69-1.35v6h-3.17Z"/><path class="cls-3" d="M291.41,73.8h-7.34V69.4a12.11,12.11,0,0,1-4.34,3.86,10.94,10.94,0,0,1-5.05,1.3,11.46,11.46,0,0,1-8.87-4.17q-3.69-4.17-3.69-11.63,0-7.63,3.59-11.6a11.71,11.71,0,0,1,9.08-4,11.27,11.27,0,0,1,8.71,4.17V32.44h7.91ZM270.27,58.23c0,3.21.44,5.54,1.32,7a6,6,0,0,0,5.35,3.12A5.79,5.79,0,0,0,281.58,66q1.92-2.34,1.92-7,0-5.19-1.86-7.47a6.08,6.08,0,0,0-9.47,0Q270.27,53.77,270.27,58.23Z"/><path class="cls-3" d="M313.67,64.33l7.91,1.33a12.9,12.9,0,0,1-4.8,6.62,14.11,14.11,0,0,1-8.23,2.28q-7.8,0-11.56-5.12a17.23,17.23,0,0,1-3-10.34q0-7.47,3.89-11.69a12.81,12.81,0,0,1,9.84-4.22q6.67,0,10.54,4.42T322,61.15H302.18a8,8,0,0,0,1.91,5.49,5.94,5.94,0,0,0,4.55,2,4.8,4.8,0,0,0,3.12-1A6.24,6.24,0,0,0,313.67,64.33Zm.46-8a7.64,7.64,0,0,0-1.77-5.25,5.42,5.42,0,0,0-4.11-1.8,5.48,5.48,0,0,0-4.27,1.9,7.33,7.33,0,0,0-1.66,5.15Z"/><rect class="cls-4" x="325.61" y="32.44" width="7.91" height="41.36"/><path class="cls-3" d="M338.74,39.78V32.44h7.92v7.34Zm0,34v-30h7.92v30Z"/><polygon class="cls-5" points="368.13 32.44 357.7 73.8 393.09 73.8 403.8 32.44 368.13 32.44"/><path class="cls-6" d="M361.19,71l5.91-23.41c1.41-5.69,12.26-13.61,22.44-6.19l1.6-6.26,3.74.1-3.61,15c-4-11.75-18.52-9.55-20.71-.82l-5.47,21.65Z"/><path class="cls-6" d="M400.28,35.21l-5.9,23.44c-1.42,5.66-12.26,13.58-22.47,6.16l-1.61,6.25L366.6,71l3.61-15c4,11.72,18.51,9.52,20.71.82l5.44-21.69Z"/><path class="cls-6" d="M381.18,43.57a9.54,9.54,0,1,1-10,9.14A9.57,9.57,0,0,1,381.18,43.57Z"/><path class="cls-5" d="M381,47.31a5.82,5.82,0,1,1-6.07,5.56A5.84,5.84,0,0,1,381,47.31Z"/></svg>