<svg id="Layer_1" data-name="Layer 1" xmlns="http://www.w3.org/2000/svg" viewBox="0 0 490.93 125.32"><defs><style>.cls-1{fill:#f32735;}.cls-2{fill:#fff;}.cls-3,.cls-5{fill:#414042;}.cls-3,.cls-4{fill-rule:evenodd;}.cls-4{fill:#44ace1;}</style></defs><rect class="cls-1" x="25.06" y="25.06" width="75.19" height="75.19" rx="6.85"/><path class="cls-2" d="M40.81,62a26.69,26.69,0,0,1,53.36,0H92.85a20.57,20.57,0,0,0-41.14,0ZM28.42,62A34.25,34.25,0,0,1,96.9,62H95.5a28.06,28.06,0,0,0-56.1,0ZM53.1,62a19.2,19.2,0,0,1,38.39,0H90.07c0-.16,0-.32,0-.48a13.72,13.72,0,0,0-27.43,0V62Zm19.12,1.39a19.19,19.19,0,0,1-38.38,0h1.41c0,.15,0,.31,0,.47a13.72,13.72,0,0,0,27.44,0c0-.16,0-.32,0-.47Zm24.68,0a34.25,34.25,0,0,1-68.48,0h1.41a28.06,28.06,0,0,0,56.09,0Zm-12.39,0a26.69,26.69,0,0,1-53.35,0h1.32a20.57,20.57,0,0,0,41.13,0Z"/><path class="cls-3" d="M131.5,74V69.51a12.25,12.25,0,0,1-10,5.24,11,11,0,0,1-5.43-1.33,7.85,7.85,0,0,1-3.49-3.74A16.81,16.81,0,0,1,111.54,63V44h7.92V57.8c0,4.23.15,6.83.44,7.78a4.27,4.27,0,0,0,1.6,2.26,4.92,4.92,0,0,0,3,.84,6.26,6.26,0,0,0,3.66-1.12,5.67,5.67,0,0,0,2.21-2.77c.4-1.11.6-3.81.6-8.12V44h7.92V74Z"/><path class="cls-3" d="M171.43,74H163.5V58.7a23.59,23.59,0,0,0-.51-6.28,4.4,4.4,0,0,0-1.67-2.21,4.76,4.76,0,0,0-2.77-.79,6.42,6.42,0,0,0-3.74,1.13,5.69,5.69,0,0,0-2.26,3,25.49,25.49,0,0,0-.62,6.89V74H144V44h7.35v4.41a12.42,12.42,0,0,1,14.76-4.1,8.07,8.07,0,0,1,3.31,2.41A9,9,0,0,1,171,50a25,25,0,0,1,.44,5.34Z"/><path class="cls-3" d="M176.6,74V44h7.92V74Zm0-34.07V32.58h7.92v7.35Z"/><path class="cls-3" d="M198,74,185.9,44h8.33l5.65,15.32,1.64,5.12c.43-1.3.71-2.16.82-2.57.26-.85.55-1.7.85-2.55L208.92,44h8.16L205.15,74Z"/><path class="cls-3" d="M236.87,56.47a7.64,7.64,0,0,0-1.77-5.25,5.69,5.69,0,0,0-8.4.1A7.38,7.38,0,0,0,225,56.47Zm-.46,8,7.93,1.33a13.05,13.05,0,0,1-4.82,6.63,14.11,14.11,0,0,1-8.23,2.27q-7.83,0-11.58-5.12a17.2,17.2,0,0,1-3-10.35q0-7.48,3.9-11.71a12.82,12.82,0,0,1,9.85-4.23q6.69,0,10.55,4.43t3.7,13.56H224.9a8.07,8.07,0,0,0,1.91,5.5,6,6,0,0,0,4.56,2,4.85,4.85,0,0,0,3.13-1A6.24,6.24,0,0,0,236.41,64.52Z"/><path class="cls-3" d="M275.67,74h-7.92V58.7a23.59,23.59,0,0,0-.51-6.28,4.4,4.4,0,0,0-1.67-2.21,4.79,4.79,0,0,0-2.78-.79,6.41,6.41,0,0,0-3.73,1.13,5.71,5.71,0,0,0-2.27,3,26,26,0,0,0-.61,6.89V74h-7.92V44h7.34v4.41a12.43,12.43,0,0,1,14.77-4.1,8,8,0,0,1,3.3,2.41A8.65,8.65,0,0,1,275.23,50a24.35,24.35,0,0,1,.44,5.34Z"/><path class="cls-3" d="M300.68,74V69.51a12.21,12.21,0,0,1-10,5.24,11,11,0,0,1-5.43-1.33,7.85,7.85,0,0,1-3.49-3.74A16.81,16.81,0,0,1,280.73,63V44h7.92V57.8c0,4.23.15,6.83.44,7.78a4.22,4.22,0,0,0,1.6,2.26,4.92,4.92,0,0,0,2.95.84,6.26,6.26,0,0,0,3.66-1.12,5.67,5.67,0,0,0,2.21-2.77c.4-1.11.6-3.81.6-8.12V44H308V74Z"/><path class="cls-3" d="M310.48,65.56l8-1.22a5.78,5.78,0,0,0,2.06,3.49,7,7,0,0,0,4.35,1.2,7.9,7.9,0,0,0,4.64-1.13,2.55,2.55,0,0,0,1-2.13,2.13,2.13,0,0,0-.56-1.5,6.49,6.49,0,0,0-2.66-1q-9.61-2.11-12.19-3.87a7.77,7.77,0,0,1-3.56-6.77A8.35,8.35,0,0,1,314.66,46q3.07-2.67,9.55-2.67c4.11,0,7.16.68,9.16,2a10.32,10.32,0,0,1,4.12,6L330,52.71A4.67,4.67,0,0,0,328.2,50a6.66,6.66,0,0,0-3.85-.94,8.67,8.67,0,0,0-4.52.88,1.88,1.88,0,0,0-.9,1.61,1.76,1.76,0,0,0,.79,1.45c.72.52,3.2,1.27,7.44,2.23s7.2,2.14,8.88,3.54a7.33,7.33,0,0,1,2.49,5.91,9.08,9.08,0,0,1-3.45,7.1q-3.45,3-10.2,3c-4.1,0-7.33-.82-9.72-2.47A11.44,11.44,0,0,1,310.48,65.56Z"/><path class="cls-4" d="M355.41,51.34c1.12-4.83,3.11-5.35,6-4.92,4.48.78,5.69,4,6.12,8-.51,7-5.09,9.06-8.36,11.56-.43.69.52.6.86.51a17.28,17.28,0,0,0,4.74-2.32c.69-.26,1.3-.26,1.56,0,.25,3.44,1.12,4.48,2.15,5.69,2.33,1.46,4,.17,5-.87,2.85-2.93,3.8-6.72,3.8-13.28-1.12.52-2.33,1-3.45,1.47a4.54,4.54,0,0,1-1,4c.43,3.19,0,5.61-1.81,5.44-1.12.34-1.72-.78-1.72-3.71-.18-2.24,1.72-2.5,3.1-3.62a1,1,0,0,0-.08-1.56c-.61-.17-1.13-.17-1.73-.34-1.29-.43-1.29-1.64-1.21-3.88,4.66,3.36,4.92,1.72,9,.17,1.47,7.5-.69,12.25-3.53,18.46a7.9,7.9,0,0,1,1.46-.09c1.3-.6,2.5-1.21,3.8-1.9.51,1,.94,2.07,1.46,3a61.6,61.6,0,0,0-15.86,8.36c.69-1.29,1.81-3,2.5-4.31.69-4.74-3.8-6.29-7.42-6.21a44.17,44.17,0,0,0-5.69.69c-2.5.35-3.28,0-2.5-2.32.6-1.3.6-2.42-.43-2.94.69-.94.26-1.12-.69-1.89.17-.69.69-1.38.51-2.16,0-1.55-2.32-1.29-.6-2.33a18.62,18.62,0,0,0,2-2.5c.44-.69,1-.43,1.56-.6a4.54,4.54,0,0,0,2.84-1c.26-.35.17-.43.09-.78-.95.26-2.24-.34-3.36-.6,0-1.12.86-1.9,2.41-1.55.95-.18,1.64.43,2.41.69,0-.18.09-.18.09-.43C359,51.85,356.79,51.77,355.41,51.34ZM369.3,50c2.5,1,5.52,1.73,8.19-1.46a12.14,12.14,0,0,0,1.81-9.83,4.84,4.84,0,0,1,4.05,1.55c2.16,3.36,2.5,7.5,2.42,11-.61,5.34-2.16,8.45-4.31,10.78a52.46,52.46,0,0,0,1-11.9,34.37,34.37,0,0,0-1-7.68c-.18-.52-.78-.78-.78.09-.52,4.14-1.55,6.38-3.88,8C373.78,52.72,370.25,51.85,369.3,50Zm18.8-12.67a1.45,1.45,0,0,1,1.46,1.46,1.47,1.47,0,1,1-2.93,0A1.45,1.45,0,0,1,388.1,37.37Zm-3.19-3a2,2,0,0,1,2,2,2,2,0,0,1-2,2,2.06,2.06,0,0,1-2-2A2,2,0,0,1,384.91,34.35Zm-4.23-.17A1.64,1.64,0,1,1,379,35.81,1.65,1.65,0,0,1,380.68,34.18Zm-2.07.25a16.57,16.57,0,0,0-9.66.78c-4.91,2.16-8.62,4-12.16,8.37-1,1.55-.34,2.15-.51,3.27-1.81,2.24-2.25,4.4-2.94,6.9-.17,2.24-1.2,2.16-2.07,2.24-.17,1.21,2.07-.08.18,2.76-.52.52-.95,1-1.47,1.47-.34,1.29.6,1.38,1,2,.25.95-.35,1.64-.52,2.42.08.6.77.77,1.12,1.12-1.38,1.29.43,1.29.6,1.89.09.26-.34,1.21-.43,1.64-1.64,5,2.76,3.37,4.83,3,3.62-.43,6.64-.6,9.49,1,1.46,2.07,1.64,3.1.6,4.83-1.47,2.15-2.76,4.57-4.14,6.89,6.9-4.31,11.9-8.88,20.7-11.12l-2.07-4.66c5.34-5.17,12.24-12.93,10.52-26.9-.35-2.5-2.07-8.45-7.16-9.57C382.4,32.36,380.25,32.45,378.61,34.43Z"/><path class="cls-3" d="M111.54,96.8l3.17-.49a2.29,2.29,0,0,0,.81,1.39,2.76,2.76,0,0,0,1.73.47,3.12,3.12,0,0,0,1.84-.45,1,1,0,0,0,.41-.84.8.8,0,0,0-.22-.59,2.56,2.56,0,0,0-1.06-.42,16.71,16.71,0,0,1-4.83-1.54A3.07,3.07,0,0,1,112,91.65,3.3,3.3,0,0,1,113.2,89,5.7,5.7,0,0,1,117,88a6.51,6.51,0,0,1,3.63.8,4,4,0,0,1,1.63,2.36l-3,.55a1.86,1.86,0,0,0-.72-1.07,2.66,2.66,0,0,0-1.53-.37,3.49,3.49,0,0,0-1.79.34.76.76,0,0,0-.36.64.7.7,0,0,0,.31.58,12,12,0,0,0,3,.88,8.82,8.82,0,0,1,3.53,1.41,2.9,2.9,0,0,1,1,2.34,3.63,3.63,0,0,1-1.37,2.82,6.08,6.08,0,0,1-4,1.17,6.61,6.61,0,0,1-3.85-1A4.49,4.49,0,0,1,111.54,96.8Z"/><path class="cls-3" d="M127.3,94a4.6,4.6,0,0,0,.79,3,2.44,2.44,0,0,0,1.94,1,2.26,2.26,0,0,0,1.82-.88,4.6,4.6,0,0,0,.73-2.9,4.34,4.34,0,0,0-.75-2.79,2.34,2.34,0,0,0-1.86-.91,2.38,2.38,0,0,0-1.91.9A4,4,0,0,0,127.3,94Zm-3.1-5.77h2.94V90a4.34,4.34,0,0,1,3.71-2,4.56,4.56,0,0,1,3.52,1.62,6.63,6.63,0,0,1,1.44,4.54,6.79,6.79,0,0,1-1.46,4.64,4.54,4.54,0,0,1-3.53,1.65,4.05,4.05,0,0,1-1.79-.39,6.13,6.13,0,0,1-1.69-1.34v6H124.2Z"/><path class="cls-3" d="M144.24,93.19a3.06,3.06,0,0,0-.7-2.08,2.24,2.24,0,0,0-3.33,0,2.88,2.88,0,0,0-.66,2Zm-.18,3.19,3.14.53a5.13,5.13,0,0,1-1.91,2.63,5.63,5.63,0,0,1-3.27.9,5.3,5.3,0,0,1-4.59-2,6.85,6.85,0,0,1-1.18-4.11,6.6,6.6,0,0,1,1.55-4.64A5.07,5.07,0,0,1,141.71,88a5.25,5.25,0,0,1,4.18,1.75c1,1.17,1.52,3,1.47,5.38h-7.87a3.19,3.19,0,0,0,.76,2.18,2.37,2.37,0,0,0,1.81.78,1.92,1.92,0,0,0,1.24-.4A2.51,2.51,0,0,0,144.06,96.38Z"/><path class="cls-3" d="M159.17,91.77l-3.1.55a2.22,2.22,0,0,0-.71-1.39,2.17,2.17,0,0,0-1.44-.47,2.32,2.32,0,0,0-1.87.82,4.15,4.15,0,0,0-.7,2.72,4.79,4.79,0,0,0,.71,3,2.33,2.33,0,0,0,1.91.87,2.11,2.11,0,0,0,1.46-.51,3.08,3.08,0,0,0,.81-1.76l3.09.53a5.53,5.53,0,0,1-1.84,3.23,5.79,5.79,0,0,1-3.67,1.08,5.45,5.45,0,0,1-4.16-1.65,7.52,7.52,0,0,1,0-9.16A5.51,5.51,0,0,1,153.88,88a5.74,5.74,0,0,1,3.45.93A5.11,5.11,0,0,1,159.17,91.77Z"/><path class="cls-3" d="M160.43,100.15V88.24h3.14v11.91Zm0-13.52V83.72h3.14v2.91Z"/><path class="cls-3" d="M172.21,94.46c-.41.13-1,.29-1.92.48a5.56,5.56,0,0,0-1.71.55,1.31,1.31,0,0,0-.62,1.1,1.55,1.55,0,0,0,.5,1.15,1.7,1.7,0,0,0,1.25.48,2.72,2.72,0,0,0,1.62-.56,2,2,0,0,0,.75-1,5.78,5.78,0,0,0,.13-1.54ZM168,91.91l-2.85-.51a4.48,4.48,0,0,1,1.66-2.58,6,6,0,0,1,3.5-.83,7.55,7.55,0,0,1,3.13.49,3.25,3.25,0,0,1,1.46,1.27,6.49,6.49,0,0,1,.42,2.82l-.05,3.67a12.89,12.89,0,0,0,.15,2.31,7,7,0,0,0,.56,1.6h-3.12c-.08-.21-.18-.52-.3-.92-.05-.19-.09-.31-.11-.37a5.61,5.61,0,0,1-1.72,1.19,5,5,0,0,1-2,.39,4.07,4.07,0,0,1-2.89-1,3.34,3.34,0,0,1-1.05-2.52,3.41,3.41,0,0,1,.48-1.8,3.11,3.11,0,0,1,1.35-1.21,10.6,10.6,0,0,1,2.5-.73,17.35,17.35,0,0,0,3.06-.78V92.1a1.65,1.65,0,0,0-.45-1.31,2.62,2.62,0,0,0-1.7-.4A1.89,1.89,0,0,0,168,91.91Z"/><rect class="cls-5" x="177.27" y="83.72" width="3.14" height="16.43"/><path class="cls-3" d="M182.49,100.15V88.24h3.14v11.91Zm0-13.52V83.72h3.14v2.91Z"/><path class="cls-3" d="M193.52,88.24v2.5h-2.16v4.82a12.39,12.39,0,0,0,.06,1.71.7.7,0,0,0,.28.4.89.89,0,0,0,.54.16,4.17,4.17,0,0,0,1.27-.3l.26,2.44a6.13,6.13,0,0,1-2.48.47,3.9,3.9,0,0,1-1.53-.28,2.2,2.2,0,0,1-1-.75,2.91,2.91,0,0,1-.44-1.23,15.06,15.06,0,0,1-.1-2.23V90.74h-1.45v-2.5h1.45V85.87L191.36,84v4.22Z"/><path class="cls-3" d="M194.21,88.24h3.35l2.86,8.45,2.79-8.45h3.26l-4.2,11.46-.76,2.07a7.86,7.86,0,0,1-.8,1.58,3.18,3.18,0,0,1-.86.89,3.67,3.67,0,0,1-1.2.53,6.19,6.19,0,0,1-1.62.2,9,9,0,0,1-1.79-.19l-.27-2.46a6.71,6.71,0,0,0,1.34.14,2,2,0,0,0,1.63-.64,4.55,4.55,0,0,0,.81-1.65Z"/><path class="cls-3" d="M215.58,94a4.6,4.6,0,0,0,.79,3,2.42,2.42,0,0,0,1.93,1,2.27,2.27,0,0,0,1.83-.88,4.6,4.6,0,0,0,.72-2.9,4.34,4.34,0,0,0-.75-2.79,2.31,2.31,0,0,0-1.85-.91,2.38,2.38,0,0,0-1.91.9A4,4,0,0,0,215.58,94Zm-3.1-5.77h2.94V90a4.34,4.34,0,0,1,3.71-2,4.52,4.52,0,0,1,3.51,1.62,6.58,6.58,0,0,1,1.45,4.54,6.79,6.79,0,0,1-1.46,4.64,4.54,4.54,0,0,1-3.53,1.65,4,4,0,0,1-1.79-.39,6.13,6.13,0,0,1-1.69-1.34v6h-3.14Z"/><path class="cls-3" d="M232.19,94.46c-.4.13-1,.29-1.91.48a5.55,5.55,0,0,0-1.72.55,1.3,1.3,0,0,0-.61,1.1,1.54,1.54,0,0,0,.49,1.15,1.73,1.73,0,0,0,1.25.48,2.77,2.77,0,0,0,1.63-.56,2,2,0,0,0,.75-1,6.4,6.4,0,0,0,.12-1.54ZM228,91.91l-2.84-.51a4.52,4.52,0,0,1,1.65-2.58,6,6,0,0,1,3.5-.83,7.6,7.6,0,0,1,3.14.49,3.17,3.17,0,0,1,1.45,1.27,6.49,6.49,0,0,1,.42,2.82l0,3.67a12.89,12.89,0,0,0,.15,2.31,6.59,6.59,0,0,0,.57,1.6h-3.13c-.08-.21-.18-.52-.3-.92-.05-.19-.09-.31-.11-.37a5.49,5.49,0,0,1-1.72,1.19,4.92,4.92,0,0,1-1.95.39,4.05,4.05,0,0,1-2.89-1,3.54,3.54,0,0,1-.57-4.32,3.14,3.14,0,0,1,1.34-1.21,10.71,10.71,0,0,1,2.51-.73,16.93,16.93,0,0,0,3.05-.78V92.1a1.65,1.65,0,0,0-.45-1.31,2.59,2.59,0,0,0-1.69-.4,2.3,2.3,0,0,0-1.32.34A2.33,2.33,0,0,0,228,91.91Z"/><path class="cls-3" d="M240.26,94a4.6,4.6,0,0,0,.8,3,2.42,2.42,0,0,0,1.93,1,2.28,2.28,0,0,0,1.83-.88,4.6,4.6,0,0,0,.72-2.9,4.34,4.34,0,0,0-.75-2.79,2.33,2.33,0,0,0-1.85-.91,2.42,2.42,0,0,0-1.92.9A4,4,0,0,0,240.26,94Zm-3.09-5.77h2.93V90a4.37,4.37,0,0,1,3.71-2,4.53,4.53,0,0,1,3.52,1.62,6.58,6.58,0,0,1,1.45,4.54,6.79,6.79,0,0,1-1.46,4.64,4.54,4.54,0,0,1-3.53,1.65,4,4,0,0,1-1.79-.39,6,6,0,0,1-1.69-1.34v6h-3.14Z"/><path class="cls-3" d="M257.58,93.19a3,3,0,0,0-.7-2.08,2.15,2.15,0,0,0-1.63-.72,2.19,2.19,0,0,0-1.7.76,2.88,2.88,0,0,0-.66,2Zm-.18,3.19,3.14.53a5.13,5.13,0,0,1-1.91,2.63,5.62,5.62,0,0,1-3.26.9,5.32,5.32,0,0,1-4.6-2,6.84,6.84,0,0,1-1.17-4.11,6.6,6.6,0,0,1,1.54-4.64A5.07,5.07,0,0,1,255.05,88a5.28,5.28,0,0,1,4.19,1.75c1,1.17,1.51,3,1.46,5.38h-7.87a3.19,3.19,0,0,0,.76,2.18,2.38,2.38,0,0,0,1.81.78,1.92,1.92,0,0,0,1.24-.4A2.51,2.51,0,0,0,257.4,96.38Z"/><path class="cls-3" d="M265.15,100.15H262V88.24h2.91v1.69a5,5,0,0,1,1.35-1.57,2.54,2.54,0,0,1,1.37-.37,4,4,0,0,1,2.08.59l-1,2.74a2.77,2.77,0,0,0-1.48-.51,1.75,1.75,0,0,0-1.12.36,2.48,2.48,0,0,0-.73,1.32,19.07,19.07,0,0,0-.26,4Z"/><path class="cls-3" d="M280.68,88.24v2.5h-2.16v4.82a12.39,12.39,0,0,0,.06,1.71.72.72,0,0,0,.29.4.84.84,0,0,0,.53.16,4.17,4.17,0,0,0,1.27-.3l.26,2.44a6.1,6.1,0,0,1-2.48.47,4,4,0,0,1-1.53-.28,2.2,2.2,0,0,1-1-.75,2.91,2.91,0,0,1-.44-1.23,15.06,15.06,0,0,1-.1-2.23V90.74h-1.45v-2.5h1.45V85.87L278.52,84v4.22Z"/><path class="cls-3" d="M281.76,100.15V88.24h3.14v11.91Zm0-13.52V83.72h3.14v2.91Z"/><path class="cls-3" d="M285.85,96.8l3.17-.49a2.3,2.3,0,0,0,.82,1.39,2.73,2.73,0,0,0,1.72.47,3.1,3.1,0,0,0,1.84-.45,1,1,0,0,0,.41-.84.8.8,0,0,0-.22-.59,2.56,2.56,0,0,0-1-.42,16.7,16.7,0,0,1-4.84-1.54,3.07,3.07,0,0,1-1.41-2.68A3.3,3.3,0,0,1,287.51,89,5.72,5.72,0,0,1,291.3,88a6.51,6.51,0,0,1,3.63.8,4.1,4.1,0,0,1,1.64,2.36l-3,.55a1.87,1.87,0,0,0-.73-1.07,2.66,2.66,0,0,0-1.53-.37,3.49,3.49,0,0,0-1.79.34.76.76,0,0,0-.36.64.71.71,0,0,0,.32.58,11.68,11.68,0,0,0,3,.88A8.82,8.82,0,0,1,296,94.11a2.9,2.9,0,0,1,1,2.34,3.63,3.63,0,0,1-1.37,2.82,6.08,6.08,0,0,1-4.05,1.17,6.61,6.61,0,0,1-3.85-1A4.49,4.49,0,0,1,285.85,96.8Z"/><path class="cls-3" d="M297.48,96.8l3.17-.49a2.29,2.29,0,0,0,.81,1.39,2.78,2.78,0,0,0,1.73.47,3.12,3.12,0,0,0,1.84-.45,1,1,0,0,0,.41-.84.8.8,0,0,0-.22-.59,2.56,2.56,0,0,0-1.06-.42,16.71,16.71,0,0,1-4.83-1.54,3.07,3.07,0,0,1-1.41-2.68A3.3,3.3,0,0,1,299.14,89,5.72,5.72,0,0,1,302.93,88a6.51,6.51,0,0,1,3.63.8,4.1,4.1,0,0,1,1.64,2.36l-3,.55a1.87,1.87,0,0,0-.73-1.07,2.66,2.66,0,0,0-1.53-.37,3.49,3.49,0,0,0-1.79.34.76.76,0,0,0-.36.64.7.7,0,0,0,.31.58,12,12,0,0,0,3,.88,8.82,8.82,0,0,1,3.52,1.41,2.9,2.9,0,0,1,1,2.34,3.63,3.63,0,0,1-1.37,2.82,6.08,6.08,0,0,1-4.05,1.17,6.61,6.61,0,0,1-3.85-1A4.49,4.49,0,0,1,297.48,96.8Z"/><path class="cls-3" d="M318.1,100.15V98.36a4.57,4.57,0,0,1-1.71,1.52,4.65,4.65,0,0,1-2.24.56,4.42,4.42,0,0,1-2.16-.52,3.21,3.21,0,0,1-1.38-1.49,6.67,6.67,0,0,1-.42-2.64V88.24h3.14v5.48a15.93,15.93,0,0,0,.17,3.09,1.7,1.7,0,0,0,.64.89,2,2,0,0,0,1.17.34,2.47,2.47,0,0,0,1.45-.45,2.23,2.23,0,0,0,.88-1.1,13.29,13.29,0,0,0,.23-3.22v-5H321v11.91Z"/><path class="cls-3" d="M330.18,93.19a3.06,3.06,0,0,0-.7-2.08,2.15,2.15,0,0,0-1.63-.72,2.17,2.17,0,0,0-1.7.76,2.88,2.88,0,0,0-.66,2ZM330,96.38l3.14.53a5.13,5.13,0,0,1-1.91,2.63,5.63,5.63,0,0,1-3.27.9,5.32,5.32,0,0,1-4.59-2,6.84,6.84,0,0,1-1.17-4.11,6.6,6.6,0,0,1,1.54-4.64A5.07,5.07,0,0,1,327.65,88a5.25,5.25,0,0,1,4.18,1.75c1,1.17,1.52,3,1.47,5.38h-7.87a3.19,3.19,0,0,0,.76,2.18,2.37,2.37,0,0,0,1.81.78,1.92,1.92,0,0,0,1.24-.4A2.51,2.51,0,0,0,330,96.38Z"/><path class="cls-3" d="M344.7,92.63A4.19,4.19,0,0,0,343.09,94a2.71,2.71,0,0,0-.54,1.58,2.24,2.24,0,0,0,.66,1.67,2.46,2.46,0,0,0,1.78.64,3.64,3.64,0,0,0,1.42-.29,6,6,0,0,0,1.48-1Zm1.23-3.43.85-.65a2,2,0,0,0,.93-1.45,1.38,1.38,0,0,0-.45-1,1.71,1.71,0,0,0-1.22-.43,1.69,1.69,0,0,0-1.16.38,1.15,1.15,0,0,0-.43.87,2.4,2.4,0,0,0,.72,1.42Zm8.57,9-1.9,2.43a10.84,10.84,0,0,1-2.69-1.88,6.68,6.68,0,0,1-2.12,1.32,7.64,7.64,0,0,1-2.67.42,5.87,5.87,0,0,1-4.61-1.72,4.48,4.48,0,0,1-1.2-3.08,4.63,4.63,0,0,1,.95-2.84,7.73,7.73,0,0,1,2.82-2.19,8.42,8.42,0,0,1-1.27-1.91,3.93,3.93,0,0,1-.43-1.71,3.25,3.25,0,0,1,1.19-2.53,5,5,0,0,1,3.4-1,4.73,4.73,0,0,1,3.32,1.09,3.46,3.46,0,0,1,.61,4.55,8,8,0,0,1-2.38,2l2.26,3a7.28,7.28,0,0,0,.69-1.86l2.86.64a18.69,18.69,0,0,1-.74,2.22,5.73,5.73,0,0,1-.68,1.17,13.15,13.15,0,0,0,1.37,1.08A8.42,8.42,0,0,0,354.5,98.15Z"/><path class="cls-3" d="M371,91.77l-3.1.55a2.22,2.22,0,0,0-.71-1.39,2.17,2.17,0,0,0-1.44-.47,2.32,2.32,0,0,0-1.87.82,4.15,4.15,0,0,0-.7,2.72,4.79,4.79,0,0,0,.71,3,2.33,2.33,0,0,0,1.9.87,2.12,2.12,0,0,0,1.47-.51,3,3,0,0,0,.8-1.76l3.1.53a5.54,5.54,0,0,1-1.85,3.23,5.74,5.74,0,0,1-3.66,1.08,5.45,5.45,0,0,1-4.16-1.65,7.52,7.52,0,0,1,0-9.16A5.49,5.49,0,0,1,365.69,88a5.78,5.78,0,0,1,3.45.93A5.16,5.16,0,0,1,371,91.77Z"/><path class="cls-3" d="M374.74,94.21a4,4,0,0,0,.84,2.72,2.74,2.74,0,0,0,4.13,0,4,4,0,0,0,.83-2.74,3.92,3.92,0,0,0-.83-2.69,2.74,2.74,0,0,0-4.13,0A3.94,3.94,0,0,0,374.74,94.21Zm-3.24-.16a6.44,6.44,0,0,1,.78-3,5.26,5.26,0,0,1,2.19-2.24,6.4,6.4,0,0,1,3.16-.77,5.92,5.92,0,0,1,4.42,1.75,6.08,6.08,0,0,1,1.73,4.44A6.18,6.18,0,0,1,382,98.67a5.91,5.91,0,0,1-4.39,1.77,6.82,6.82,0,0,1-3.12-.74,5,5,0,0,1-2.25-2.17A7.16,7.16,0,0,1,371.5,94.05Z"/><path class="cls-3" d="M396,100.15H392.8V94.08a9.08,9.08,0,0,0-.2-2.49,1.69,1.69,0,0,0-.66-.88,1.9,1.9,0,0,0-1.1-.32,2.54,2.54,0,0,0-1.48.45,2.26,2.26,0,0,0-.9,1.19,10.25,10.25,0,0,0-.24,2.73v5.39h-3.15V88.24H388V90a4.95,4.95,0,0,1,5.85-1.63,3.13,3.13,0,0,1,1.31,1,3.35,3.35,0,0,1,.62,1.32,9.5,9.5,0,0,1,.18,2.12Z"/><path class="cls-3" d="M401.27,100.15l-4.8-11.91h3.31L402,94.32l.65,2c.17-.52.28-.86.32-1,.11-.33.22-.67.34-1l2.28-6.08h3.23l-4.73,11.91Z"/><path class="cls-3" d="M416.69,93.19a3,3,0,0,0-.7-2.08,2.15,2.15,0,0,0-1.63-.72,2.19,2.19,0,0,0-1.7.76,2.88,2.88,0,0,0-.66,2Zm-.18,3.19,3.14.53a5.13,5.13,0,0,1-1.91,2.63,5.59,5.59,0,0,1-3.26.9,5.29,5.29,0,0,1-4.59-2,6.78,6.78,0,0,1-1.18-4.11,6.6,6.6,0,0,1,1.54-4.64A5.08,5.08,0,0,1,414.16,88a5.27,5.27,0,0,1,4.19,1.75c1,1.17,1.51,3,1.47,5.38h-7.88a3.24,3.24,0,0,0,.76,2.18,2.38,2.38,0,0,0,1.81.78,1.9,1.9,0,0,0,1.24-.4A2.45,2.45,0,0,0,416.51,96.38Z"/><path class="cls-3" d="M424.26,100.15h-3.14V88.24H424v1.69a4.84,4.84,0,0,1,1.36-1.57,2.5,2.5,0,0,1,1.36-.37,4,4,0,0,1,2.08.59l-1,2.74a2.77,2.77,0,0,0-1.48-.51,1.77,1.77,0,0,0-1.12.36,2.41,2.41,0,0,0-.72,1.32,18.15,18.15,0,0,0-.27,4Z"/><path class="cls-3" d="M435.79,88.24v2.5h-2.16v4.82a10.21,10.21,0,0,0,.07,1.71.66.66,0,0,0,.28.4.84.84,0,0,0,.53.16,4.11,4.11,0,0,0,1.27-.3L436,100a6.1,6.1,0,0,1-2.48.47,4,4,0,0,1-1.53-.28,2.2,2.2,0,0,1-1-.75,2.91,2.91,0,0,1-.44-1.23,15.06,15.06,0,0,1-.1-2.23V90.74H429v-2.5h1.45V85.87L433.63,84v4.22Z"/><path class="cls-3" d="M436.87,100.15V88.24H440v11.91Zm0-13.52V83.72H440v2.91Z"/><path class="cls-3" d="M452.92,100.15h-3.15V94.08a9.08,9.08,0,0,0-.2-2.49,1.8,1.8,0,0,0-.66-.88,1.9,1.9,0,0,0-1.1-.32,2.54,2.54,0,0,0-1.48.45,2.26,2.26,0,0,0-.9,1.19,10.13,10.13,0,0,0-.25,2.73v5.39H442V88.24H445V90a5,5,0,0,1,5.86-1.63,3.13,3.13,0,0,1,1.31,1,3.35,3.35,0,0,1,.62,1.32,9.5,9.5,0,0,1,.18,2.12Z"/><path class="cls-3" d="M457.49,94a4.33,4.33,0,0,0,.73,2.77,2.26,2.26,0,0,0,1.81.88,2.5,2.5,0,0,0,2-.9,4,4,0,0,0,.79-2.67,4.15,4.15,0,0,0-.76-2.74,2.42,2.42,0,0,0-1.92-.9,2.35,2.35,0,0,0-1.87.88A4.18,4.18,0,0,0,457.49,94Zm-2.82,7,3.6.44a1.22,1.22,0,0,0,.42.87,2.32,2.32,0,0,0,1.41.35,3.74,3.74,0,0,0,1.85-.37,1.52,1.52,0,0,0,.63-.8,5.08,5.08,0,0,0,.14-1.45l0-1.74a4.28,4.28,0,0,1-3.58,2,4.39,4.39,0,0,1-3.8-2,6.85,6.85,0,0,1-1.1-4,6.58,6.58,0,0,1,1.44-4.57A4.64,4.64,0,0,1,459.28,88a4.36,4.36,0,0,1,3.65,1.93V88.24h2.94V98.91a10.64,10.64,0,0,1-.35,3.15,3.88,3.88,0,0,1-1,1.64,4.37,4.37,0,0,1-1.67.93,8.94,8.94,0,0,1-2.65.34,6.83,6.83,0,0,1-4.3-1,3.26,3.26,0,0,1-1.26-2.63C454.66,101.18,454.66,101.05,454.67,100.9Z"/></svg>